<svg width="205" height="98" viewBox="0 0 205 98" fill="none" xmlns="http://www.w3.org/2000/svg">
<rect width="205" height="98" fill="black"/>
<g clip-path="url(#clip0)" filter="url(#filter0_i)">
<path d="M65.9421 63.3167L59.9388 42.3627C59.7147 41.5141 58.8827 40.9161 57.9262 40.9161C57.877 40.9161 57.5741 40.9162 57.0759 40.9259C56.9423 40.7869 56.7838 40.6704 56.6087 40.5786C56.6252 40.2826 56.6345 39.9851 56.6345 39.6852C56.6343 30.0447 48.0679 22.2293 37.5001 22.2293C26.9323 22.2293 18.3658 30.0447 18.3658 39.6852C18.3658 39.9851 18.3751 40.2826 18.3917 40.5786C18.2165 40.6704 18.0581 40.7871 17.9245 40.9259C17.4259 40.9162 17.1231 40.9161 17.0741 40.9161C16.1174 40.9161 15.2854 41.514 15.0613 42.3627L9.05793 63.3167C8.79261 64.3226 9.46353 65.3358 10.5628 65.5898L36.9923 71.6928L36.9939 71.6935C36.995 71.6938 36.996 71.694 36.997 71.6944C37.0459 71.7054 37.3112 71.7706 37.5001 71.7706C37.6889 71.7706 37.9546 71.7053 38.0035 71.6941C38.0046 71.6939 38.0056 71.6939 38.0062 71.6936C38.007 71.6933 38.0076 71.6933 38.0081 71.6929L64.4373 65.5899C65.5367 65.336 66.2075 64.3227 65.9421 63.3167ZM51.949 37.7176L45.2178 37.7174C45.0338 33.9698 44.374 30.3532 43.1913 27.6107C47.7354 29.3642 51.1119 33.1528 51.949 37.7176ZM37.0846 27.776L37.9154 27.7758C38.8373 29.1401 40.0825 32.475 40.3642 37.7171H34.6358C34.9177 32.475 36.1627 29.1405 37.0846 27.776ZM31.8085 27.6106C30.6259 30.3531 29.966 33.9687 29.7824 37.7173H23.051C23.8881 33.1532 27.2646 29.3642 31.8085 27.6106ZM35.6558 65.5751L16.1791 61.0768L20.7521 43.7471C22.414 43.7979 25.2801 43.94 28.1226 44.3394C34.0815 45.1775 35.656 46.5467 35.656 47.1533L35.6558 65.5751ZM37.5 43.8346C36.9664 43.4261 36.2898 43.0309 35.431 42.6688C35.1839 42.5649 34.9218 42.4644 34.6482 42.3665C34.6434 42.2909 34.639 42.2164 34.6348 42.1401H40.3641C40.3599 42.2164 40.3553 42.2911 40.3506 42.3668C40.0775 42.4644 39.8156 42.565 39.5688 42.6688C38.7104 43.0309 38.0336 43.4262 37.5 43.8346ZM39.3442 65.5751V47.1533C39.3442 46.5484 40.9113 45.1828 46.8429 44.3442C49.6908 43.9418 52.5775 43.7987 54.2479 43.7474L58.8208 61.0768L39.3442 65.5751Z" fill="white"/>
</g>
<g filter="url(#filter1_ii)">
<path d="M72.314 32.458C72.314 33.0153 72.336 33.4627 72.38 33.8C72.4387 34.1373 72.5413 34.4013 72.688 34.592C72.8347 34.7827 73.04 34.9147 73.304 34.988C73.5827 35.0613 73.9493 35.1053 74.404 35.12V36H66.77V35.12C67.254 35.1053 67.65 35.0613 67.958 34.988C68.266 34.9147 68.5007 34.79 68.662 34.614C68.8233 34.438 68.9333 34.1887 68.992 33.866C69.0507 33.5433 69.08 33.1253 69.08 32.612V22.448C69.08 21.9493 69.0507 21.5387 68.992 21.216C68.948 20.8933 68.8527 20.644 68.706 20.468C68.5593 20.292 68.3467 20.1673 68.068 20.094C67.804 20.0207 67.452 19.9693 67.012 19.94V19.06H74.602V19.94C74.1033 19.9547 73.7 19.9987 73.392 20.072C73.0987 20.1453 72.8713 20.2773 72.71 20.468C72.5487 20.6587 72.4387 20.9227 72.38 21.26C72.336 21.5973 72.314 22.0447 72.314 22.602V27.486L78.012 21.37C78.3493 21.0033 78.518 20.6953 78.518 20.446C78.518 20.2847 78.408 20.16 78.188 20.072C77.9827 19.984 77.594 19.94 77.022 19.94V19.06H83.028V19.918C82.7053 19.9327 82.4193 19.962 82.17 20.006C81.9353 20.05 81.6933 20.1453 81.444 20.292C81.2093 20.4387 80.938 20.6513 80.63 20.93C80.3367 21.194 79.97 21.5533 79.53 22.008L75.614 26.1L82.082 33.976C82.39 34.3573 82.7273 34.636 83.094 34.812C83.4753 34.988 83.9593 35.0907 84.546 35.12V36H76.406V35.12C77.0073 35.1053 77.44 35.054 77.704 34.966C77.968 34.878 78.1 34.7313 78.1 34.526C78.1 34.4527 78.0853 34.3867 78.056 34.328C78.0413 34.2547 78.0047 34.174 77.946 34.086C77.902 33.9833 77.8287 33.866 77.726 33.734C77.6233 33.5873 77.484 33.4113 77.308 33.206L73.414 28.41L72.314 29.554V32.458ZM93.4426 18.84C94.7626 18.84 95.9946 19.0673 97.1386 19.522C98.2826 19.9767 99.2726 20.6 100.109 21.392C100.959 22.184 101.627 23.1153 102.111 24.186C102.595 25.2567 102.837 26.4153 102.837 27.662C102.837 28.85 102.587 29.9647 102.089 31.006C101.605 32.0473 100.937 32.9567 100.087 33.734C99.2506 34.4967 98.2606 35.1053 97.1166 35.56C95.9726 36 94.7479 36.22 93.4426 36.22C92.1373 36.22 90.9126 36 89.7686 35.56C88.6246 35.1053 87.6273 34.4967 86.7766 33.734C85.9259 32.9567 85.2586 32.0473 84.7746 31.006C84.2906 29.9647 84.0486 28.85 84.0486 27.662C84.0486 26.4153 84.2906 25.2567 84.7746 24.186C85.2586 23.1153 85.9186 22.184 86.7546 21.392C87.6053 20.6 88.6026 19.9767 89.7466 19.522C90.8906 19.0673 92.1226 18.84 93.4426 18.84ZM93.4426 34.79C94.2933 34.79 95.0633 34.6287 95.7526 34.306C96.4419 33.9687 97.0286 33.4993 97.5126 32.898C97.9966 32.282 98.3633 31.5413 98.6126 30.676C98.8766 29.796 99.0086 28.8133 99.0086 27.728C99.0086 26.584 98.8766 25.5573 98.6126 24.648C98.3633 23.724 97.9966 22.9393 97.5126 22.294C97.0286 21.634 96.4419 21.1353 95.7526 20.798C95.0633 20.446 94.2933 20.27 93.4426 20.27C92.5773 20.27 91.7999 20.446 91.1106 20.798C90.4359 21.1353 89.8566 21.634 89.3726 22.294C88.8886 22.9393 88.5146 23.724 88.2506 24.648C88.0013 25.5573 87.8766 26.584 87.8766 27.728C87.8766 28.8133 88.0013 29.796 88.2506 30.676C88.5146 31.5413 88.8886 32.282 89.3726 32.898C89.8566 33.4993 90.4359 33.9687 91.1106 34.306C91.7999 34.6287 92.5773 34.79 93.4426 34.79ZM120.295 29.18C120.295 30.4267 120.155 31.4973 119.877 32.392C119.613 33.272 119.195 33.998 118.623 34.57C118.051 35.142 117.31 35.56 116.401 35.824C115.506 36.088 114.428 36.22 113.167 36.22C110.805 36.22 109.075 35.7287 107.975 34.746C106.889 33.7487 106.347 32.1647 106.347 29.994V23.966C106.347 23.394 106.339 22.9173 106.325 22.536C106.31 22.14 106.288 21.81 106.259 21.546C106.229 21.282 106.185 21.0693 106.127 20.908C106.083 20.732 106.024 20.5853 105.951 20.468C105.819 20.2627 105.628 20.1233 105.379 20.05C105.129 19.9767 104.748 19.94 104.235 19.94V19.06H112.133V19.94C111.517 19.94 111.062 19.9767 110.769 20.05C110.475 20.1087 110.248 20.2333 110.087 20.424C109.984 20.5413 109.896 20.688 109.823 20.864C109.764 21.0253 109.713 21.2453 109.669 21.524C109.639 21.788 109.617 22.118 109.603 22.514C109.588 22.91 109.581 23.394 109.581 23.966V29.73C109.581 31.402 109.933 32.6413 110.637 33.448C111.355 34.24 112.455 34.636 113.937 34.636C116.958 34.636 118.469 32.9567 118.469 29.598V24.516C118.469 23.9 118.454 23.372 118.425 22.932C118.41 22.492 118.373 22.118 118.315 21.81C118.271 21.502 118.205 21.2453 118.117 21.04C118.043 20.8347 117.948 20.666 117.831 20.534C117.625 20.3287 117.361 20.182 117.039 20.094C116.716 19.9913 116.269 19.94 115.697 19.94V19.06H122.825V19.94C122.282 19.94 121.864 19.984 121.571 20.072C121.277 20.1453 121.05 20.2847 120.889 20.49C120.771 20.622 120.676 20.798 120.603 21.018C120.529 21.2233 120.471 21.4873 120.427 21.81C120.383 22.118 120.346 22.492 120.317 22.932C120.302 23.372 120.295 23.9 120.295 24.516V29.18ZM124.186 30.39H125.044C125.249 31.7833 125.807 32.8833 126.716 33.69C127.625 34.482 128.747 34.878 130.082 34.878C130.625 34.878 131.123 34.812 131.578 34.68C132.033 34.548 132.421 34.3647 132.744 34.13C133.067 33.8807 133.316 33.5947 133.492 33.272C133.668 32.9347 133.756 32.5607 133.756 32.15C133.756 31.798 133.697 31.4973 133.58 31.248C133.477 30.984 133.272 30.7347 132.964 30.5C132.656 30.2507 132.231 30.0013 131.688 29.752C131.16 29.5027 130.471 29.2167 129.62 28.894C127.904 28.234 126.635 27.4713 125.814 26.606C124.993 25.726 124.582 24.692 124.582 23.504C124.582 22.8147 124.714 22.184 124.978 21.612C125.242 21.04 125.609 20.5487 126.078 20.138C126.562 19.7273 127.134 19.412 127.794 19.192C128.469 18.9573 129.209 18.84 130.016 18.84C130.764 18.84 131.468 18.9573 132.128 19.192C132.788 19.4267 133.441 19.7787 134.086 20.248L134.482 19.148H135.01L135.252 23.9H134.394C134.042 22.6973 133.492 21.7807 132.744 21.15C131.996 20.5047 131.131 20.182 130.148 20.182C129.239 20.182 128.498 20.4093 127.926 20.864C127.369 21.304 127.09 21.876 127.09 22.58C127.09 22.888 127.141 23.1667 127.244 23.416C127.347 23.6507 127.537 23.878 127.816 24.098C128.095 24.318 128.476 24.5453 128.96 24.78C129.444 25 130.067 25.2493 130.83 25.528C131.857 25.924 132.729 26.3273 133.448 26.738C134.181 27.134 134.775 27.5667 135.23 28.036C135.699 28.4907 136.044 28.9747 136.264 29.488C136.484 30.0013 136.594 30.566 136.594 31.182C136.594 31.93 136.433 32.612 136.11 33.228C135.787 33.844 135.333 34.372 134.746 34.812C134.174 35.252 133.485 35.5967 132.678 35.846C131.886 36.0953 131.006 36.22 130.038 36.22C129.158 36.22 128.366 36.1027 127.662 35.868C126.958 35.6187 126.232 35.2227 125.484 34.68L125.044 36H124.516L124.186 30.39ZM155.344 23.9H154.398C154.354 23.1813 154.244 22.5873 154.068 22.118C153.907 21.634 153.672 21.2527 153.364 20.974C153.056 20.6807 152.682 20.4827 152.242 20.38C151.802 20.2627 151.289 20.204 150.702 20.204C150.13 20.204 149.668 20.2187 149.316 20.248C148.979 20.2627 148.715 20.2993 148.524 20.358C148.348 20.402 148.231 20.468 148.172 20.556C148.113 20.644 148.084 20.754 148.084 20.886V32.414C148.084 32.8833 148.113 33.2867 148.172 33.624C148.245 33.9613 148.385 34.24 148.59 34.46C148.795 34.6653 149.096 34.8267 149.492 34.944C149.888 35.0467 150.409 35.1053 151.054 35.12V36H141.836V35.12C142.496 35.1053 143.024 35.0467 143.42 34.944C143.816 34.8267 144.117 34.6653 144.322 34.46C144.542 34.24 144.681 33.9613 144.74 33.624C144.813 33.2867 144.85 32.8833 144.85 32.414V20.886C144.85 20.754 144.821 20.644 144.762 20.556C144.718 20.468 144.615 20.402 144.454 20.358C144.293 20.2993 144.058 20.2627 143.75 20.248C143.457 20.2187 143.068 20.204 142.584 20.204C142.056 20.204 141.55 20.2333 141.066 20.292C140.582 20.336 140.157 20.4827 139.79 20.732C139.423 20.9667 139.123 21.3333 138.888 21.832C138.668 22.316 138.551 23.0053 138.536 23.9H137.678L137.898 19.06H155.124L155.344 23.9ZM172.265 29.18C172.265 30.4267 172.126 31.4973 171.847 32.392C171.583 33.272 171.165 33.998 170.593 34.57C170.021 35.142 169.281 35.56 168.371 35.824C167.477 36.088 166.399 36.22 165.137 36.22C162.776 36.22 161.045 35.7287 159.945 34.746C158.86 33.7487 158.317 32.1647 158.317 29.994V23.966C158.317 23.394 158.31 22.9173 158.295 22.536C158.281 22.14 158.259 21.81 158.229 21.546C158.2 21.282 158.156 21.0693 158.097 20.908C158.053 20.732 157.995 20.5853 157.921 20.468C157.789 20.2627 157.599 20.1233 157.349 20.05C157.1 19.9767 156.719 19.94 156.205 19.94V19.06H164.103V19.94C163.487 19.94 163.033 19.9767 162.739 20.05C162.446 20.1087 162.219 20.2333 162.057 20.424C161.955 20.5413 161.867 20.688 161.793 20.864C161.735 21.0253 161.683 21.2453 161.639 21.524C161.61 21.788 161.588 22.118 161.573 22.514C161.559 22.91 161.551 23.394 161.551 23.966V29.73C161.551 31.402 161.903 32.6413 162.607 33.448C163.326 34.24 164.426 34.636 165.907 34.636C168.929 34.636 170.439 32.9567 170.439 29.598V24.516C170.439 23.9 170.425 23.372 170.395 22.932C170.381 22.492 170.344 22.118 170.285 21.81C170.241 21.502 170.175 21.2453 170.087 21.04C170.014 20.8347 169.919 20.666 169.801 20.534C169.596 20.3287 169.332 20.182 169.009 20.094C168.687 19.9913 168.239 19.94 167.667 19.94V19.06H174.795V19.94C174.253 19.94 173.835 19.984 173.541 20.072C173.248 20.1453 173.021 20.2847 172.859 20.49C172.742 20.622 172.647 20.798 172.573 21.018C172.5 21.2233 172.441 21.4873 172.397 21.81C172.353 22.118 172.317 22.492 172.287 22.932C172.273 23.372 172.265 23.9 172.265 24.516V29.18ZM184.605 32.216L187.465 24.89C187.743 24.1713 187.963 23.5847 188.125 23.13C188.301 22.6753 188.433 22.3013 188.521 22.008C188.609 21.7147 188.667 21.48 188.697 21.304C188.726 21.128 188.741 20.9593 188.741 20.798C188.741 20.446 188.609 20.2187 188.345 20.116C188.081 19.9987 187.553 19.94 186.761 19.94V19.06H193.009V19.94C191.791 19.94 190.948 20.534 190.479 21.722L184.693 36.22H183.065L177.807 23.372C177.513 22.6827 177.249 22.118 177.015 21.678C176.78 21.238 176.531 20.8933 176.267 20.644C176.003 20.38 175.709 20.204 175.387 20.116C175.079 20.0133 174.712 19.962 174.287 19.962V19.06H182.603V19.962C182.221 19.9767 181.899 19.9987 181.635 20.028C181.385 20.0573 181.187 20.1087 181.041 20.182C180.894 20.2407 180.791 20.3287 180.733 20.446C180.674 20.5487 180.645 20.6807 180.645 20.842C180.645 21.0473 180.681 21.2893 180.755 21.568C180.828 21.8467 180.938 22.184 181.085 22.58L184.605 32.216Z" fill="#1DEDFB"/>
</g>
<g filter="url(#filter2_i)">
<path d="M94.1554 48.048C94.7528 48.048 95.2328 48.1333 95.5954 48.304C95.9688 48.4747 96.3634 48.736 96.7794 49.088C96.9181 49.1947 97.0248 49.248 97.0994 49.248C97.3021 49.248 97.4354 48.9227 97.4994 48.272H97.8674C97.8248 48.88 97.8034 49.9467 97.8034 51.472H97.4354C97.3501 51.0667 97.2434 50.7093 97.1154 50.4C96.9981 50.0907 96.8381 49.8187 96.6354 49.584C96.2834 49.1787 95.9154 48.8693 95.5314 48.656C95.1474 48.4427 94.6781 48.336 94.1234 48.336C93.4834 48.336 92.9288 48.5333 92.4594 48.928C91.9901 49.312 91.6274 49.8667 91.3714 50.592C91.1154 51.3173 90.9874 52.1707 90.9874 53.152C90.9874 54.784 91.2861 55.984 91.8834 56.752C92.4808 57.52 93.3714 57.904 94.5554 57.904C95.0141 57.904 95.4248 57.8613 95.7874 57.776C95.9794 57.7333 96.1074 57.664 96.1714 57.568C96.2461 57.472 96.2834 57.3387 96.2834 57.168V55.792C96.2834 55.344 96.2408 55.0187 96.1554 54.816C96.0701 54.6133 95.9208 54.4747 95.7074 54.4C95.4941 54.3253 95.1474 54.2773 94.6674 54.256V53.936C95.2434 53.968 95.9954 53.984 96.9234 53.984C97.6488 53.984 98.2034 53.968 98.5874 53.936V54.256C98.3421 54.2773 98.1661 54.32 98.0594 54.384C97.9528 54.448 97.8781 54.5707 97.8354 54.752C97.7928 54.9333 97.7714 55.2267 97.7714 55.632V58H97.4514C97.4301 57.744 97.3501 57.616 97.2114 57.616C97.1474 57.616 97.0301 57.6533 96.8594 57.728C96.6888 57.8027 96.5714 57.8507 96.5074 57.872C95.8248 58.1067 95.1261 58.224 94.4114 58.224C92.8114 58.224 91.5741 57.7973 90.6994 56.944C89.8248 56.08 89.3874 54.8747 89.3874 53.328C89.3874 52.2613 89.5901 51.3333 89.9954 50.544C90.4008 49.744 90.9608 49.1307 91.6754 48.704C92.4008 48.2667 93.2274 48.048 94.1554 48.048ZM109.214 57.328C109.011 57.616 108.776 57.84 108.51 58C108.254 58.1493 107.944 58.224 107.582 58.224C106.686 58.224 106.136 57.8187 105.934 57.008L105.438 55.008C105.288 54.4107 105.064 54.0107 104.766 53.808C104.478 53.6053 104.046 53.504 103.47 53.504H102.558V56.304C102.558 56.7093 102.59 57.0027 102.654 57.184C102.718 57.3653 102.835 57.488 103.006 57.552C103.187 57.616 103.47 57.6587 103.854 57.68V58C103.363 57.968 102.686 57.952 101.822 57.952C100.904 57.952 100.222 57.968 99.7736 58V57.68C100.158 57.6587 100.435 57.616 100.606 57.552C100.787 57.488 100.91 57.3653 100.974 57.184C101.038 57.0027 101.07 56.7093 101.07 56.304V49.968C101.07 49.5627 101.038 49.2693 100.974 49.088C100.91 48.9067 100.787 48.784 100.606 48.72C100.435 48.656 100.158 48.6133 99.7736 48.592V48.272C100.222 48.304 100.872 48.32 101.726 48.32L103.358 48.304C103.539 48.2933 103.747 48.288 103.982 48.288C105.176 48.288 106.088 48.512 106.718 48.96C107.358 49.408 107.678 49.9893 107.678 50.704C107.678 51.3227 107.427 51.888 106.926 52.4C106.435 52.912 105.624 53.2373 104.494 53.376C104.707 53.3973 104.888 53.4187 105.038 53.44C105.603 53.5253 106.051 53.696 106.382 53.952C106.712 54.208 106.947 54.6187 107.086 55.184L107.438 56.64C107.523 57.0133 107.614 57.28 107.71 57.44C107.816 57.5893 107.95 57.664 108.11 57.664C108.376 57.664 108.67 57.4827 108.99 57.12L109.214 57.328ZM103.582 48.592C103.294 48.592 103.075 48.6293 102.926 48.704C102.787 48.7787 102.691 48.912 102.638 49.104C102.584 49.296 102.558 49.584 102.558 49.968V53.184H103.63C104.568 53.184 105.208 52.9867 105.55 52.592C105.902 52.1867 106.078 51.616 106.078 50.88C106.078 50.112 105.88 49.5413 105.486 49.168C105.102 48.784 104.467 48.592 103.582 48.592ZM114.799 48.048C115.781 48.048 116.639 48.2453 117.375 48.64C118.122 49.024 118.698 49.5947 119.103 50.352C119.509 51.0987 119.711 51.9947 119.711 53.04C119.711 54.064 119.498 54.9707 119.071 55.76C118.655 56.5387 118.074 57.1467 117.327 57.584C116.581 58.0107 115.733 58.224 114.783 58.224C113.802 58.224 112.938 58.032 112.191 57.648C111.455 57.2533 110.885 56.6827 110.479 55.936C110.074 55.1787 109.871 54.2773 109.871 53.232C109.871 52.208 110.079 51.3067 110.495 50.528C110.922 49.7387 111.509 49.1307 112.255 48.704C113.002 48.2667 113.85 48.048 114.799 48.048ZM114.735 48.336C114.085 48.336 113.509 48.544 113.007 48.96C112.517 49.3653 112.138 49.936 111.871 50.672C111.605 51.3973 111.471 52.2293 111.471 53.168C111.471 54.1173 111.621 54.9547 111.919 55.68C112.218 56.4053 112.623 56.9653 113.135 57.36C113.647 57.744 114.218 57.936 114.847 57.936C115.498 57.936 116.069 57.7333 116.559 57.328C117.061 56.912 117.445 56.3413 117.711 55.616C117.978 54.88 118.111 54.0427 118.111 53.104C118.111 52.1547 117.962 51.3173 117.663 50.592C117.365 49.8667 116.959 49.312 116.447 48.928C115.935 48.5333 115.365 48.336 114.735 48.336ZM130.589 48.592C130.216 48.6133 129.938 48.672 129.757 48.768C129.576 48.8533 129.453 49.0027 129.389 49.216C129.325 49.4187 129.293 49.7227 129.293 50.128V53.664C129.293 54.4 129.24 55.0293 129.133 55.552C129.037 56.064 128.872 56.512 128.637 56.896C128.381 57.3013 128.008 57.6267 127.517 57.872C127.037 58.1067 126.488 58.224 125.869 58.224C124.77 58.224 123.928 57.9893 123.341 57.52C122.872 57.104 122.557 56.6293 122.397 56.096C122.237 55.5627 122.157 54.768 122.157 53.712V49.968C122.157 49.5627 122.125 49.2693 122.061 49.088C121.997 48.9067 121.874 48.784 121.693 48.72C121.522 48.656 121.245 48.6133 120.861 48.592V48.272C121.309 48.304 121.992 48.32 122.909 48.32C123.762 48.32 124.44 48.304 124.941 48.272V48.592C124.557 48.6133 124.274 48.656 124.093 48.72C123.922 48.784 123.805 48.9067 123.741 49.088C123.677 49.2693 123.645 49.5627 123.645 49.968V53.984C123.645 54.7733 123.698 55.4293 123.805 55.952C123.912 56.464 124.136 56.88 124.477 57.2C124.829 57.5093 125.341 57.664 126.013 57.664C127.08 57.664 127.832 57.328 128.269 56.656C128.706 55.984 128.925 55.0453 128.925 53.84V50.128C128.925 49.552 128.818 49.1573 128.605 48.944C128.402 48.7307 128.024 48.6133 127.469 48.592V48.272C127.853 48.304 128.397 48.32 129.101 48.32C129.741 48.32 130.237 48.304 130.589 48.272V48.592ZM134.448 54.064V56.304C134.448 56.7093 134.48 57.0027 134.544 57.184C134.608 57.3653 134.726 57.488 134.896 57.552C135.078 57.616 135.36 57.6587 135.744 57.68V58C135.254 57.968 134.576 57.952 133.712 57.952C132.795 57.952 132.112 57.968 131.664 58V57.68C132.048 57.6587 132.326 57.616 132.496 57.552C132.678 57.488 132.8 57.3653 132.864 57.184C132.928 57.0027 132.96 56.7093 132.96 56.304V49.968C132.96 49.5627 132.928 49.2693 132.864 49.088C132.8 48.9067 132.678 48.784 132.496 48.72C132.326 48.656 132.048 48.6133 131.664 48.592V48.272C132.112 48.304 132.763 48.32 133.616 48.32L135.344 48.304C135.547 48.2933 135.776 48.288 136.032 48.288C137.174 48.288 138.048 48.5333 138.656 49.024C139.264 49.504 139.568 50.1493 139.568 50.96C139.568 51.472 139.44 51.9627 139.184 52.432C138.939 52.9013 138.512 53.2907 137.904 53.6C137.307 53.9093 136.512 54.064 135.52 54.064H134.448ZM135.632 48.592C135.302 48.592 135.051 48.6293 134.88 48.704C134.72 48.7787 134.608 48.912 134.544 49.104C134.48 49.296 134.448 49.584 134.448 49.968V53.744H135.36C136.342 53.744 137.019 53.5093 137.392 53.04C137.776 52.5707 137.968 51.936 137.968 51.136C137.968 50.272 137.787 49.632 137.424 49.216C137.062 48.8 136.464 48.592 135.632 48.592ZM149.424 48.048C150.406 48.048 151.264 48.2453 152 48.64C152.747 49.024 153.323 49.5947 153.728 50.352C154.134 51.0987 154.336 51.9947 154.336 53.04C154.336 54.064 154.123 54.9707 153.696 55.76C153.28 56.5387 152.699 57.1467 151.952 57.584C151.206 58.0107 150.358 58.224 149.408 58.224C148.427 58.224 147.563 58.032 146.816 57.648C146.08 57.2533 145.51 56.6827 145.104 55.936C144.699 55.1787 144.496 54.2773 144.496 53.232C144.496 52.208 144.704 51.3067 145.12 50.528C145.547 49.7387 146.134 49.1307 146.88 48.704C147.627 48.2667 148.475 48.048 149.424 48.048ZM149.36 48.336C148.71 48.336 148.134 48.544 147.632 48.96C147.142 49.3653 146.763 49.936 146.496 50.672C146.23 51.3973 146.096 52.2293 146.096 53.168C146.096 54.1173 146.246 54.9547 146.544 55.68C146.843 56.4053 147.248 56.9653 147.76 57.36C148.272 57.744 148.843 57.936 149.472 57.936C150.123 57.936 150.694 57.7333 151.184 57.328C151.686 56.912 152.07 56.3413 152.336 55.616C152.603 54.88 152.736 54.0427 152.736 53.104C152.736 52.1547 152.587 51.3173 152.288 50.592C151.99 49.8667 151.584 49.312 151.072 48.928C150.56 48.5333 149.99 48.336 149.36 48.336ZM163.375 48.272C163.3 48.912 163.263 49.488 163.263 50C163.263 50.416 163.279 50.7467 163.311 50.992H162.943C162.868 50.1173 162.682 49.5093 162.383 49.168C162.095 48.816 161.62 48.64 160.959 48.64H159.791C159.407 48.64 159.124 48.672 158.943 48.736C158.772 48.7893 158.655 48.9067 158.591 49.088C158.527 49.2693 158.495 49.5627 158.495 49.968V52.944H159.823C160.164 52.944 160.426 52.8587 160.607 52.688C160.788 52.5067 160.911 52.3147 160.975 52.112C161.039 51.8987 161.098 51.632 161.151 51.312H161.519C161.487 51.6747 161.471 52.0693 161.471 52.496V53.104C161.471 53.52 161.503 54.1173 161.567 54.896H161.199C161.135 54.384 161.012 53.984 160.831 53.696C160.65 53.408 160.314 53.264 159.823 53.264H158.495V56.304C158.495 56.7093 158.538 57.0027 158.623 57.184C158.708 57.3653 158.858 57.488 159.071 57.552C159.284 57.616 159.631 57.6587 160.111 57.68V58C159.556 57.968 158.772 57.952 157.759 57.952C156.842 57.952 156.159 57.968 155.711 58V57.68C156.095 57.6587 156.372 57.616 156.543 57.552C156.724 57.488 156.847 57.3653 156.911 57.184C156.975 57.0027 157.007 56.7093 157.007 56.304V49.968C157.007 49.5627 156.975 49.2693 156.911 49.088C156.847 48.9067 156.724 48.784 156.543 48.72C156.372 48.656 156.095 48.6133 155.711 48.592V48.272C156.724 48.304 158.218 48.32 160.191 48.32C161.684 48.32 162.746 48.304 163.375 48.272ZM77.2129 63.592C76.8289 63.6133 76.5463 63.656 76.3649 63.72C76.1943 63.784 76.0769 63.9067 76.0129 64.088C75.9489 64.2693 75.9169 64.5627 75.9169 64.968V71.304C75.9169 71.7093 75.9489 72.0027 76.0129 72.184C76.0769 72.3653 76.1943 72.488 76.3649 72.552C76.5463 72.616 76.8289 72.6587 77.2129 72.68V73C76.7223 72.968 76.0449 72.952 75.1809 72.952C74.2636 72.952 73.5809 72.968 73.1329 73V72.68C73.5169 72.6587 73.7943 72.616 73.9649 72.552C74.1463 72.488 74.2689 72.3653 74.3329 72.184C74.3969 72.0027 74.4289 71.7093 74.4289 71.304V64.968C74.4289 64.5627 74.3969 64.2693 74.3329 64.088C74.2689 63.9067 74.1463 63.784 73.9649 63.72C73.7943 63.656 73.5169 63.6133 73.1329 63.592V63.272C73.5809 63.304 74.2636 63.32 75.1809 63.32C76.0343 63.32 76.7116 63.304 77.2129 63.272V63.592ZM88.2828 63.592C87.9095 63.6133 87.6321 63.672 87.4508 63.768C87.2695 63.8533 87.1468 64.0027 87.0828 64.216C87.0188 64.4187 86.9868 64.7227 86.9868 65.128V73.08H86.6188L80.2188 64.216V71.144C80.2188 71.56 80.2508 71.8693 80.3148 72.072C80.3895 72.2747 80.5281 72.424 80.7308 72.52C80.9335 72.6053 81.2481 72.6587 81.6748 72.68V73C81.2908 72.968 80.7468 72.952 80.0428 72.952C79.4028 72.952 78.9068 72.968 78.5548 73V72.68C78.9281 72.6587 79.2055 72.6053 79.3868 72.52C79.5681 72.424 79.6908 72.2747 79.7548 72.072C79.8188 71.8587 79.8508 71.5493 79.8508 71.144V64.968C79.8508 64.5627 79.8188 64.2693 79.7548 64.088C79.6908 63.9067 79.5681 63.784 79.3868 63.72C79.2161 63.656 78.9388 63.6133 78.5548 63.592V63.272C78.9068 63.304 79.4028 63.32 80.0428 63.32C80.6188 63.32 81.1095 63.304 81.5148 63.272L86.6188 70.376V65.128C86.6188 64.712 86.5815 64.4027 86.5068 64.2C86.4428 63.9973 86.3095 63.8533 86.1068 63.768C85.9041 63.672 85.5895 63.6133 85.1628 63.592V63.272C85.5468 63.304 86.0908 63.32 86.7948 63.32C87.4348 63.32 87.9308 63.304 88.2828 63.272V63.592ZM92.7913 63.048C93.2606 63.048 93.6286 63.1013 93.8953 63.208C94.1726 63.304 94.4553 63.448 94.7433 63.64C94.978 63.7893 95.1593 63.864 95.2873 63.864C95.3833 63.864 95.458 63.8107 95.5113 63.704C95.5646 63.5867 95.6073 63.4053 95.6393 63.16H96.0073C95.954 63.7147 95.9273 64.696 95.9273 66.104H95.5593C95.4953 65.336 95.2446 64.6853 94.8073 64.152C94.3806 63.6187 93.7566 63.352 92.9353 63.352C92.37 63.352 91.9006 63.5013 91.5273 63.8C91.1646 64.0987 90.9833 64.4773 90.9833 64.936C90.9833 65.2667 91.0633 65.5547 91.2233 65.8C91.394 66.0453 91.6073 66.2587 91.8633 66.44C92.13 66.6107 92.5033 66.824 92.9833 67.08L93.5113 67.368C94.1726 67.72 94.7006 68.0347 95.0953 68.312C95.5006 68.5893 95.826 68.9093 96.0713 69.272C96.3166 69.624 96.4393 70.0347 96.4393 70.504C96.4393 71.368 96.1246 72.04 95.4953 72.52C94.8766 72.9893 94.098 73.224 93.1593 73.224C92.6473 73.224 92.226 73.1707 91.8953 73.064C91.5753 72.9573 91.266 72.8133 90.9673 72.632C90.7326 72.4827 90.5513 72.408 90.4233 72.408C90.3273 72.408 90.2526 72.4667 90.1993 72.584C90.146 72.6907 90.1033 72.8667 90.0713 73.112H89.7033C89.746 72.5893 89.7673 71.416 89.7673 69.592H90.1353C90.21 70.584 90.4766 71.384 90.9353 71.992C91.394 72.6 92.098 72.904 93.0473 72.904C93.5806 72.904 94.0393 72.7547 94.4233 72.456C94.818 72.1467 95.0153 71.6933 95.0153 71.096C95.0153 70.744 94.914 70.4347 94.7113 70.168C94.5086 69.8907 94.2366 69.6453 93.8953 69.432C93.554 69.2187 93.0793 68.952 92.4713 68.632C91.5966 68.184 90.93 67.736 90.4713 67.288C90.0126 66.84 89.7833 66.2587 89.7833 65.544C89.7833 64.7547 90.0713 64.1413 90.6473 63.704C91.234 63.2667 91.9486 63.048 92.7913 63.048ZM106.81 63.272C106.735 63.976 106.698 64.6053 106.698 65.16C106.698 65.7147 106.714 66.152 106.746 66.472H106.378C106.314 65.7253 106.212 65.1547 106.074 64.76C105.935 64.3653 105.711 64.0827 105.402 63.912C105.092 63.7307 104.65 63.64 104.074 63.64H103.05V71.144C103.05 71.592 103.092 71.9173 103.178 72.12C103.263 72.3227 103.412 72.4613 103.626 72.536C103.839 72.6107 104.186 72.6587 104.666 72.68V73C104.111 72.968 103.327 72.952 102.314 72.952C101.247 72.952 100.458 72.968 99.9458 73V72.68C100.426 72.6587 100.772 72.6107 100.986 72.536C101.199 72.4613 101.348 72.3227 101.434 72.12C101.519 71.9173 101.562 71.592 101.562 71.144V63.64H100.538C99.9618 63.64 99.5191 63.7307 99.2098 63.912C98.9005 64.0827 98.6765 64.3653 98.5378 64.76C98.3991 65.1547 98.2978 65.7253 98.2338 66.472H97.8658C97.8978 66.1307 97.9138 65.6933 97.9138 65.16C97.9138 64.6053 97.8765 63.976 97.8018 63.272C98.6871 63.304 100.191 63.32 102.314 63.32C104.426 63.32 105.924 63.304 106.81 63.272ZM112.104 63.592C111.72 63.6133 111.437 63.656 111.256 63.72C111.085 63.784 110.968 63.9067 110.904 64.088C110.84 64.2693 110.808 64.5627 110.808 64.968V71.304C110.808 71.7093 110.84 72.0027 110.904 72.184C110.968 72.3653 111.085 72.488 111.256 72.552C111.437 72.616 111.72 72.6587 112.104 72.68V73C111.613 72.968 110.936 72.952 110.072 72.952C109.154 72.952 108.472 72.968 108.024 73V72.68C108.408 72.6587 108.685 72.616 108.856 72.552C109.037 72.488 109.16 72.3653 109.224 72.184C109.288 72.0027 109.32 71.7093 109.32 71.304V64.968C109.32 64.5627 109.288 64.2693 109.224 64.088C109.16 63.9067 109.037 63.784 108.856 63.72C108.685 63.656 108.408 63.6133 108.024 63.592V63.272C108.472 63.304 109.154 63.32 110.072 63.32C110.925 63.32 111.602 63.304 112.104 63.272V63.592ZM122.325 63.272C122.251 63.976 122.213 64.6053 122.213 65.16C122.213 65.7147 122.229 66.152 122.261 66.472H121.893C121.829 65.7253 121.728 65.1547 121.589 64.76C121.451 64.3653 121.227 64.0827 120.917 63.912C120.608 63.7307 120.165 63.64 119.589 63.64H118.565V71.144C118.565 71.592 118.608 71.9173 118.693 72.12C118.779 72.3227 118.928 72.4613 119.141 72.536C119.355 72.6107 119.701 72.6587 120.181 72.68V73C119.627 72.968 118.843 72.952 117.829 72.952C116.763 72.952 115.973 72.968 115.461 73V72.68C115.941 72.6587 116.288 72.6107 116.501 72.536C116.715 72.4613 116.864 72.3227 116.949 72.12C117.035 71.9173 117.077 71.592 117.077 71.144V63.64H116.053C115.477 63.64 115.035 63.7307 114.725 63.912C114.416 64.0827 114.192 64.3653 114.053 64.76C113.915 65.1547 113.813 65.7253 113.749 66.472H113.381C113.413 66.1307 113.429 65.6933 113.429 65.16C113.429 64.6053 113.392 63.976 113.317 63.272C114.203 63.304 115.707 63.32 117.829 63.32C119.941 63.32 121.44 63.304 122.325 63.272ZM132.995 63.592C132.622 63.6133 132.345 63.672 132.163 63.768C131.982 63.8533 131.859 64.0027 131.795 64.216C131.731 64.4187 131.699 64.7227 131.699 65.128V68.664C131.699 69.4 131.646 70.0293 131.539 70.552C131.443 71.064 131.278 71.512 131.043 71.896C130.787 72.3013 130.414 72.6267 129.923 72.872C129.443 73.1067 128.894 73.224 128.275 73.224C127.177 73.224 126.334 72.9893 125.747 72.52C125.278 72.104 124.963 71.6293 124.803 71.096C124.643 70.5627 124.563 69.768 124.563 68.712V64.968C124.563 64.5627 124.531 64.2693 124.467 64.088C124.403 63.9067 124.281 63.784 124.099 63.72C123.929 63.656 123.651 63.6133 123.267 63.592V63.272C123.715 63.304 124.398 63.32 125.315 63.32C126.169 63.32 126.846 63.304 127.347 63.272V63.592C126.963 63.6133 126.681 63.656 126.499 63.72C126.329 63.784 126.211 63.9067 126.147 64.088C126.083 64.2693 126.051 64.5627 126.051 64.968V68.984C126.051 69.7733 126.105 70.4293 126.211 70.952C126.318 71.464 126.542 71.88 126.883 72.2C127.235 72.5093 127.747 72.664 128.419 72.664C129.486 72.664 130.238 72.328 130.675 71.656C131.113 70.984 131.331 70.0453 131.331 68.84V65.128C131.331 64.552 131.225 64.1573 131.011 63.944C130.809 63.7307 130.43 63.6133 129.875 63.592V63.272C130.259 63.304 130.803 63.32 131.507 63.32C132.147 63.32 132.643 63.304 132.995 63.272V63.592ZM142.95 63.272C142.876 63.976 142.838 64.6053 142.838 65.16C142.838 65.7147 142.854 66.152 142.886 66.472H142.518C142.454 65.7253 142.353 65.1547 142.214 64.76C142.076 64.3653 141.852 64.0827 141.542 63.912C141.233 63.7307 140.79 63.64 140.214 63.64H139.19V71.144C139.19 71.592 139.233 71.9173 139.318 72.12C139.404 72.3227 139.553 72.4613 139.766 72.536C139.98 72.6107 140.326 72.6587 140.806 72.68V73C140.252 72.968 139.468 72.952 138.454 72.952C137.388 72.952 136.598 72.968 136.086 73V72.68C136.566 72.6587 136.913 72.6107 137.126 72.536C137.34 72.4613 137.489 72.3227 137.574 72.12C137.66 71.9173 137.702 71.592 137.702 71.144V63.64H136.678C136.102 63.64 135.66 63.7307 135.35 63.912C135.041 64.0827 134.817 64.3653 134.678 64.76C134.54 65.1547 134.438 65.7253 134.374 66.472H134.006C134.038 66.1307 134.054 65.6933 134.054 65.16C134.054 64.6053 134.017 63.976 133.942 63.272C134.828 63.304 136.332 63.32 138.454 63.32C140.566 63.32 142.065 63.304 142.95 63.272ZM148.244 63.592C147.86 63.6133 147.578 63.656 147.396 63.72C147.226 63.784 147.108 63.9067 147.044 64.088C146.98 64.2693 146.948 64.5627 146.948 64.968V71.304C146.948 71.7093 146.98 72.0027 147.044 72.184C147.108 72.3653 147.226 72.488 147.396 72.552C147.578 72.616 147.86 72.6587 148.244 72.68V73C147.754 72.968 147.076 72.952 146.212 72.952C145.295 72.952 144.612 72.968 144.164 73V72.68C144.548 72.6587 144.826 72.616 144.996 72.552C145.178 72.488 145.3 72.3653 145.364 72.184C145.428 72.0027 145.46 71.7093 145.46 71.304V64.968C145.46 64.5627 145.428 64.2693 145.364 64.088C145.3 63.9067 145.178 63.784 144.996 63.72C144.826 63.656 144.548 63.6133 144.164 63.592V63.272C144.612 63.304 145.295 63.32 146.212 63.32C147.066 63.32 147.743 63.304 148.244 63.272V63.592ZM154.549 63.048C155.531 63.048 156.389 63.2453 157.125 63.64C157.872 64.024 158.448 64.5947 158.853 65.352C159.259 66.0987 159.461 66.9947 159.461 68.04C159.461 69.064 159.248 69.9707 158.821 70.76C158.405 71.5387 157.824 72.1467 157.077 72.584C156.331 73.0107 155.483 73.224 154.533 73.224C153.552 73.224 152.688 73.032 151.941 72.648C151.205 72.2533 150.635 71.6827 150.229 70.936C149.824 70.1787 149.621 69.2773 149.621 68.232C149.621 67.208 149.829 66.3067 150.245 65.528C150.672 64.7387 151.259 64.1307 152.005 63.704C152.752 63.2667 153.6 63.048 154.549 63.048ZM154.485 63.336C153.835 63.336 153.259 63.544 152.757 63.96C152.267 64.3653 151.888 64.936 151.621 65.672C151.355 66.3973 151.221 67.2293 151.221 68.168C151.221 69.1173 151.371 69.9547 151.669 70.68C151.968 71.4053 152.373 71.9653 152.885 72.36C153.397 72.744 153.968 72.936 154.597 72.936C155.248 72.936 155.819 72.7333 156.309 72.328C156.811 71.912 157.195 71.3413 157.461 70.616C157.728 69.88 157.861 69.0427 157.861 68.104C157.861 67.1547 157.712 66.3173 157.413 65.592C157.115 64.8667 156.709 64.312 156.197 63.928C155.685 63.5333 155.115 63.336 154.485 63.336ZM170.564 63.592C170.191 63.6133 169.913 63.672 169.732 63.768C169.551 63.8533 169.428 64.0027 169.364 64.216C169.3 64.4187 169.268 64.7227 169.268 65.128V73.08H168.9L162.5 64.216V71.144C162.5 71.56 162.532 71.8693 162.596 72.072C162.671 72.2747 162.809 72.424 163.012 72.52C163.215 72.6053 163.529 72.6587 163.956 72.68V73C163.572 72.968 163.028 72.952 162.324 72.952C161.684 72.952 161.188 72.968 160.836 73V72.68C161.209 72.6587 161.487 72.6053 161.668 72.52C161.849 72.424 161.972 72.2747 162.036 72.072C162.1 71.8587 162.132 71.5493 162.132 71.144V64.968C162.132 64.5627 162.1 64.2693 162.036 64.088C161.972 63.9067 161.849 63.784 161.668 63.72C161.497 63.656 161.22 63.6133 160.836 63.592V63.272C161.188 63.304 161.684 63.32 162.324 63.32C162.9 63.32 163.391 63.304 163.796 63.272L168.9 70.376V65.128C168.9 64.712 168.863 64.4027 168.788 64.2C168.724 63.9973 168.591 63.8533 168.388 63.768C168.185 63.672 167.871 63.6133 167.444 63.592V63.272C167.828 63.304 168.372 63.32 169.076 63.32C169.716 63.32 170.212 63.304 170.564 63.272V63.592ZM175.073 63.048C175.542 63.048 175.91 63.1013 176.177 63.208C176.454 63.304 176.737 63.448 177.025 63.64C177.259 63.7893 177.441 63.864 177.569 63.864C177.665 63.864 177.739 63.8107 177.793 63.704C177.846 63.5867 177.889 63.4053 177.921 63.16H178.289C178.235 63.7147 178.209 64.696 178.209 66.104H177.841C177.777 65.336 177.526 64.6853 177.089 64.152C176.662 63.6187 176.038 63.352 175.217 63.352C174.651 63.352 174.182 63.5013 173.809 63.8C173.446 64.0987 173.265 64.4773 173.265 64.936C173.265 65.2667 173.345 65.5547 173.505 65.8C173.675 66.0453 173.889 66.2587 174.145 66.44C174.411 66.6107 174.785 66.824 175.265 67.08L175.793 67.368C176.454 67.72 176.982 68.0347 177.377 68.312C177.782 68.5893 178.107 68.9093 178.353 69.272C178.598 69.624 178.721 70.0347 178.721 70.504C178.721 71.368 178.406 72.04 177.777 72.52C177.158 72.9893 176.379 73.224 175.441 73.224C174.929 73.224 174.507 73.1707 174.177 73.064C173.857 72.9573 173.547 72.8133 173.249 72.632C173.014 72.4827 172.833 72.408 172.705 72.408C172.609 72.408 172.534 72.4667 172.481 72.584C172.427 72.6907 172.385 72.8667 172.353 73.112H171.985C172.027 72.5893 172.049 71.416 172.049 69.592H172.417C172.491 70.584 172.758 71.384 173.217 71.992C173.675 72.6 174.379 72.904 175.329 72.904C175.862 72.904 176.321 72.7547 176.705 72.456C177.099 72.1467 177.297 71.6933 177.297 71.096C177.297 70.744 177.195 70.4347 176.993 70.168C176.79 69.8907 176.518 69.6453 176.177 69.432C175.835 69.2187 175.361 68.952 174.753 68.632C173.878 68.184 173.211 67.736 172.753 67.288C172.294 66.84 172.065 66.2587 172.065 65.544C172.065 64.7547 172.353 64.1413 172.929 63.704C173.515 63.2667 174.23 63.048 175.073 63.048Z" fill="#F19222"/>
<path d="M94.1554 48.048C94.7528 48.048 95.2328 48.1333 95.5954 48.304C95.9688 48.4747 96.3634 48.736 96.7794 49.088C96.9181 49.1947 97.0248 49.248 97.0994 49.248C97.3021 49.248 97.4354 48.9227 97.4994 48.272H97.8674C97.8248 48.88 97.8034 49.9467 97.8034 51.472H97.4354C97.3501 51.0667 97.2434 50.7093 97.1154 50.4C96.9981 50.0907 96.8381 49.8187 96.6354 49.584C96.2834 49.1787 95.9154 48.8693 95.5314 48.656C95.1474 48.4427 94.6781 48.336 94.1234 48.336C93.4834 48.336 92.9288 48.5333 92.4594 48.928C91.9901 49.312 91.6274 49.8667 91.3714 50.592C91.1154 51.3173 90.9874 52.1707 90.9874 53.152C90.9874 54.784 91.2861 55.984 91.8834 56.752C92.4808 57.52 93.3714 57.904 94.5554 57.904C95.0141 57.904 95.4248 57.8613 95.7874 57.776C95.9794 57.7333 96.1074 57.664 96.1714 57.568C96.2461 57.472 96.2834 57.3387 96.2834 57.168V55.792C96.2834 55.344 96.2408 55.0187 96.1554 54.816C96.0701 54.6133 95.9208 54.4747 95.7074 54.4C95.4941 54.3253 95.1474 54.2773 94.6674 54.256V53.936C95.2434 53.968 95.9954 53.984 96.9234 53.984C97.6488 53.984 98.2034 53.968 98.5874 53.936V54.256C98.3421 54.2773 98.1661 54.32 98.0594 54.384C97.9528 54.448 97.8781 54.5707 97.8354 54.752C97.7928 54.9333 97.7714 55.2267 97.7714 55.632V58H97.4514C97.4301 57.744 97.3501 57.616 97.2114 57.616C97.1474 57.616 97.0301 57.6533 96.8594 57.728C96.6888 57.8027 96.5714 57.8507 96.5074 57.872C95.8248 58.1067 95.1261 58.224 94.4114 58.224C92.8114 58.224 91.5741 57.7973 90.6994 56.944C89.8248 56.08 89.3874 54.8747 89.3874 53.328C89.3874 52.2613 89.5901 51.3333 89.9954 50.544C90.4008 49.744 90.9608 49.1307 91.6754 48.704C92.4008 48.2667 93.2274 48.048 94.1554 48.048ZM109.214 57.328C109.011 57.616 108.776 57.84 108.51 58C108.254 58.1493 107.944 58.224 107.582 58.224C106.686 58.224 106.136 57.8187 105.934 57.008L105.438 55.008C105.288 54.4107 105.064 54.0107 104.766 53.808C104.478 53.6053 104.046 53.504 103.47 53.504H102.558V56.304C102.558 56.7093 102.59 57.0027 102.654 57.184C102.718 57.3653 102.835 57.488 103.006 57.552C103.187 57.616 103.47 57.6587 103.854 57.68V58C103.363 57.968 102.686 57.952 101.822 57.952C100.904 57.952 100.222 57.968 99.7736 58V57.68C100.158 57.6587 100.435 57.616 100.606 57.552C100.787 57.488 100.91 57.3653 100.974 57.184C101.038 57.0027 101.07 56.7093 101.07 56.304V49.968C101.07 49.5627 101.038 49.2693 100.974 49.088C100.91 48.9067 100.787 48.784 100.606 48.72C100.435 48.656 100.158 48.6133 99.7736 48.592V48.272C100.222 48.304 100.872 48.32 101.726 48.32L103.358 48.304C103.539 48.2933 103.747 48.288 103.982 48.288C105.176 48.288 106.088 48.512 106.718 48.96C107.358 49.408 107.678 49.9893 107.678 50.704C107.678 51.3227 107.427 51.888 106.926 52.4C106.435 52.912 105.624 53.2373 104.494 53.376C104.707 53.3973 104.888 53.4187 105.038 53.44C105.603 53.5253 106.051 53.696 106.382 53.952C106.712 54.208 106.947 54.6187 107.086 55.184L107.438 56.64C107.523 57.0133 107.614 57.28 107.71 57.44C107.816 57.5893 107.95 57.664 108.11 57.664C108.376 57.664 108.67 57.4827 108.99 57.12L109.214 57.328ZM103.582 48.592C103.294 48.592 103.075 48.6293 102.926 48.704C102.787 48.7787 102.691 48.912 102.638 49.104C102.584 49.296 102.558 49.584 102.558 49.968V53.184H103.63C104.568 53.184 105.208 52.9867 105.55 52.592C105.902 52.1867 106.078 51.616 106.078 50.88C106.078 50.112 105.88 49.5413 105.486 49.168C105.102 48.784 104.467 48.592 103.582 48.592ZM114.799 48.048C115.781 48.048 116.639 48.2453 117.375 48.64C118.122 49.024 118.698 49.5947 119.103 50.352C119.509 51.0987 119.711 51.9947 119.711 53.04C119.711 54.064 119.498 54.9707 119.071 55.76C118.655 56.5387 118.074 57.1467 117.327 57.584C116.581 58.0107 115.733 58.224 114.783 58.224C113.802 58.224 112.938 58.032 112.191 57.648C111.455 57.2533 110.885 56.6827 110.479 55.936C110.074 55.1787 109.871 54.2773 109.871 53.232C109.871 52.208 110.079 51.3067 110.495 50.528C110.922 49.7387 111.509 49.1307 112.255 48.704C113.002 48.2667 113.85 48.048 114.799 48.048ZM114.735 48.336C114.085 48.336 113.509 48.544 113.007 48.96C112.517 49.3653 112.138 49.936 111.871 50.672C111.605 51.3973 111.471 52.2293 111.471 53.168C111.471 54.1173 111.621 54.9547 111.919 55.68C112.218 56.4053 112.623 56.9653 113.135 57.36C113.647 57.744 114.218 57.936 114.847 57.936C115.498 57.936 116.069 57.7333 116.559 57.328C117.061 56.912 117.445 56.3413 117.711 55.616C117.978 54.88 118.111 54.0427 118.111 53.104C118.111 52.1547 117.962 51.3173 117.663 50.592C117.365 49.8667 116.959 49.312 116.447 48.928C115.935 48.5333 115.365 48.336 114.735 48.336ZM130.589 48.592C130.216 48.6133 129.938 48.672 129.757 48.768C129.576 48.8533 129.453 49.0027 129.389 49.216C129.325 49.4187 129.293 49.7227 129.293 50.128V53.664C129.293 54.4 129.24 55.0293 129.133 55.552C129.037 56.064 128.872 56.512 128.637 56.896C128.381 57.3013 128.008 57.6267 127.517 57.872C127.037 58.1067 126.488 58.224 125.869 58.224C124.77 58.224 123.928 57.9893 123.341 57.52C122.872 57.104 122.557 56.6293 122.397 56.096C122.237 55.5627 122.157 54.768 122.157 53.712V49.968C122.157 49.5627 122.125 49.2693 122.061 49.088C121.997 48.9067 121.874 48.784 121.693 48.72C121.522 48.656 121.245 48.6133 120.861 48.592V48.272C121.309 48.304 121.992 48.32 122.909 48.32C123.762 48.32 124.44 48.304 124.941 48.272V48.592C124.557 48.6133 124.274 48.656 124.093 48.72C123.922 48.784 123.805 48.9067 123.741 49.088C123.677 49.2693 123.645 49.5627 123.645 49.968V53.984C123.645 54.7733 123.698 55.4293 123.805 55.952C123.912 56.464 124.136 56.88 124.477 57.2C124.829 57.5093 125.341 57.664 126.013 57.664C127.08 57.664 127.832 57.328 128.269 56.656C128.706 55.984 128.925 55.0453 128.925 53.84V50.128C128.925 49.552 128.818 49.1573 128.605 48.944C128.402 48.7307 128.024 48.6133 127.469 48.592V48.272C127.853 48.304 128.397 48.32 129.101 48.32C129.741 48.32 130.237 48.304 130.589 48.272V48.592ZM134.448 54.064V56.304C134.448 56.7093 134.48 57.0027 134.544 57.184C134.608 57.3653 134.726 57.488 134.896 57.552C135.078 57.616 135.36 57.6587 135.744 57.68V58C135.254 57.968 134.576 57.952 133.712 57.952C132.795 57.952 132.112 57.968 131.664 58V57.68C132.048 57.6587 132.326 57.616 132.496 57.552C132.678 57.488 132.8 57.3653 132.864 57.184C132.928 57.0027 132.96 56.7093 132.96 56.304V49.968C132.96 49.5627 132.928 49.2693 132.864 49.088C132.8 48.9067 132.678 48.784 132.496 48.72C132.326 48.656 132.048 48.6133 131.664 48.592V48.272C132.112 48.304 132.763 48.32 133.616 48.32L135.344 48.304C135.547 48.2933 135.776 48.288 136.032 48.288C137.174 48.288 138.048 48.5333 138.656 49.024C139.264 49.504 139.568 50.1493 139.568 50.96C139.568 51.472 139.44 51.9627 139.184 52.432C138.939 52.9013 138.512 53.2907 137.904 53.6C137.307 53.9093 136.512 54.064 135.52 54.064H134.448ZM135.632 48.592C135.302 48.592 135.051 48.6293 134.88 48.704C134.72 48.7787 134.608 48.912 134.544 49.104C134.48 49.296 134.448 49.584 134.448 49.968V53.744H135.36C136.342 53.744 137.019 53.5093 137.392 53.04C137.776 52.5707 137.968 51.936 137.968 51.136C137.968 50.272 137.787 49.632 137.424 49.216C137.062 48.8 136.464 48.592 135.632 48.592ZM149.424 48.048C150.406 48.048 151.264 48.2453 152 48.64C152.747 49.024 153.323 49.5947 153.728 50.352C154.134 51.0987 154.336 51.9947 154.336 53.04C154.336 54.064 154.123 54.9707 153.696 55.76C153.28 56.5387 152.699 57.1467 151.952 57.584C151.206 58.0107 150.358 58.224 149.408 58.224C148.427 58.224 147.563 58.032 146.816 57.648C146.08 57.2533 145.51 56.6827 145.104 55.936C144.699 55.1787 144.496 54.2773 144.496 53.232C144.496 52.208 144.704 51.3067 145.12 50.528C145.547 49.7387 146.134 49.1307 146.88 48.704C147.627 48.2667 148.475 48.048 149.424 48.048ZM149.36 48.336C148.71 48.336 148.134 48.544 147.632 48.96C147.142 49.3653 146.763 49.936 146.496 50.672C146.23 51.3973 146.096 52.2293 146.096 53.168C146.096 54.1173 146.246 54.9547 146.544 55.68C146.843 56.4053 147.248 56.9653 147.76 57.36C148.272 57.744 148.843 57.936 149.472 57.936C150.123 57.936 150.694 57.7333 151.184 57.328C151.686 56.912 152.07 56.3413 152.336 55.616C152.603 54.88 152.736 54.0427 152.736 53.104C152.736 52.1547 152.587 51.3173 152.288 50.592C151.99 49.8667 151.584 49.312 151.072 48.928C150.56 48.5333 149.99 48.336 149.36 48.336ZM163.375 48.272C163.3 48.912 163.263 49.488 163.263 50C163.263 50.416 163.279 50.7467 163.311 50.992H162.943C162.868 50.1173 162.682 49.5093 162.383 49.168C162.095 48.816 161.62 48.64 160.959 48.64H159.791C159.407 48.64 159.124 48.672 158.943 48.736C158.772 48.7893 158.655 48.9067 158.591 49.088C158.527 49.2693 158.495 49.5627 158.495 49.968V52.944H159.823C160.164 52.944 160.426 52.8587 160.607 52.688C160.788 52.5067 160.911 52.3147 160.975 52.112C161.039 51.8987 161.098 51.632 161.151 51.312H161.519C161.487 51.6747 161.471 52.0693 161.471 52.496V53.104C161.471 53.52 161.503 54.1173 161.567 54.896H161.199C161.135 54.384 161.012 53.984 160.831 53.696C160.65 53.408 160.314 53.264 159.823 53.264H158.495V56.304C158.495 56.7093 158.538 57.0027 158.623 57.184C158.708 57.3653 158.858 57.488 159.071 57.552C159.284 57.616 159.631 57.6587 160.111 57.68V58C159.556 57.968 158.772 57.952 157.759 57.952C156.842 57.952 156.159 57.968 155.711 58V57.68C156.095 57.6587 156.372 57.616 156.543 57.552C156.724 57.488 156.847 57.3653 156.911 57.184C156.975 57.0027 157.007 56.7093 157.007 56.304V49.968C157.007 49.5627 156.975 49.2693 156.911 49.088C156.847 48.9067 156.724 48.784 156.543 48.72C156.372 48.656 156.095 48.6133 155.711 48.592V48.272C156.724 48.304 158.218 48.32 160.191 48.32C161.684 48.32 162.746 48.304 163.375 48.272ZM77.2129 63.592C76.8289 63.6133 76.5463 63.656 76.3649 63.72C76.1943 63.784 76.0769 63.9067 76.0129 64.088C75.9489 64.2693 75.9169 64.5627 75.9169 64.968V71.304C75.9169 71.7093 75.9489 72.0027 76.0129 72.184C76.0769 72.3653 76.1943 72.488 76.3649 72.552C76.5463 72.616 76.8289 72.6587 77.2129 72.68V73C76.7223 72.968 76.0449 72.952 75.1809 72.952C74.2636 72.952 73.5809 72.968 73.1329 73V72.68C73.5169 72.6587 73.7943 72.616 73.9649 72.552C74.1463 72.488 74.2689 72.3653 74.3329 72.184C74.3969 72.0027 74.4289 71.7093 74.4289 71.304V64.968C74.4289 64.5627 74.3969 64.2693 74.3329 64.088C74.2689 63.9067 74.1463 63.784 73.9649 63.72C73.7943 63.656 73.5169 63.6133 73.1329 63.592V63.272C73.5809 63.304 74.2636 63.32 75.1809 63.32C76.0343 63.32 76.7116 63.304 77.2129 63.272V63.592ZM88.2828 63.592C87.9095 63.6133 87.6321 63.672 87.4508 63.768C87.2695 63.8533 87.1468 64.0027 87.0828 64.216C87.0188 64.4187 86.9868 64.7227 86.9868 65.128V73.08H86.6188L80.2188 64.216V71.144C80.2188 71.56 80.2508 71.8693 80.3148 72.072C80.3895 72.2747 80.5281 72.424 80.7308 72.52C80.9335 72.6053 81.2481 72.6587 81.6748 72.68V73C81.2908 72.968 80.7468 72.952 80.0428 72.952C79.4028 72.952 78.9068 72.968 78.5548 73V72.68C78.9281 72.6587 79.2055 72.6053 79.3868 72.52C79.5681 72.424 79.6908 72.2747 79.7548 72.072C79.8188 71.8587 79.8508 71.5493 79.8508 71.144V64.968C79.8508 64.5627 79.8188 64.2693 79.7548 64.088C79.6908 63.9067 79.5681 63.784 79.3868 63.72C79.2161 63.656 78.9388 63.6133 78.5548 63.592V63.272C78.9068 63.304 79.4028 63.32 80.0428 63.32C80.6188 63.32 81.1095 63.304 81.5148 63.272L86.6188 70.376V65.128C86.6188 64.712 86.5815 64.4027 86.5068 64.2C86.4428 63.9973 86.3095 63.8533 86.1068 63.768C85.9041 63.672 85.5895 63.6133 85.1628 63.592V63.272C85.5468 63.304 86.0908 63.32 86.7948 63.32C87.4348 63.32 87.9308 63.304 88.2828 63.272V63.592ZM92.7913 63.048C93.2606 63.048 93.6286 63.1013 93.8953 63.208C94.1726 63.304 94.4553 63.448 94.7433 63.64C94.978 63.7893 95.1593 63.864 95.2873 63.864C95.3833 63.864 95.458 63.8107 95.5113 63.704C95.5646 63.5867 95.6073 63.4053 95.6393 63.16H96.0073C95.954 63.7147 95.9273 64.696 95.9273 66.104H95.5593C95.4953 65.336 95.2446 64.6853 94.8073 64.152C94.3806 63.6187 93.7566 63.352 92.9353 63.352C92.37 63.352 91.9006 63.5013 91.5273 63.8C91.1646 64.0987 90.9833 64.4773 90.9833 64.936C90.9833 65.2667 91.0633 65.5547 91.2233 65.8C91.394 66.0453 91.6073 66.2587 91.8633 66.44C92.13 66.6107 92.5033 66.824 92.9833 67.08L93.5113 67.368C94.1726 67.72 94.7006 68.0347 95.0953 68.312C95.5006 68.5893 95.826 68.9093 96.0713 69.272C96.3166 69.624 96.4393 70.0347 96.4393 70.504C96.4393 71.368 96.1246 72.04 95.4953 72.52C94.8766 72.9893 94.098 73.224 93.1593 73.224C92.6473 73.224 92.226 73.1707 91.8953 73.064C91.5753 72.9573 91.266 72.8133 90.9673 72.632C90.7326 72.4827 90.5513 72.408 90.4233 72.408C90.3273 72.408 90.2526 72.4667 90.1993 72.584C90.146 72.6907 90.1033 72.8667 90.0713 73.112H89.7033C89.746 72.5893 89.7673 71.416 89.7673 69.592H90.1353C90.21 70.584 90.4766 71.384 90.9353 71.992C91.394 72.6 92.098 72.904 93.0473 72.904C93.5806 72.904 94.0393 72.7547 94.4233 72.456C94.818 72.1467 95.0153 71.6933 95.0153 71.096C95.0153 70.744 94.914 70.4347 94.7113 70.168C94.5086 69.8907 94.2366 69.6453 93.8953 69.432C93.554 69.2187 93.0793 68.952 92.4713 68.632C91.5966 68.184 90.93 67.736 90.4713 67.288C90.0126 66.84 89.7833 66.2587 89.7833 65.544C89.7833 64.7547 90.0713 64.1413 90.6473 63.704C91.234 63.2667 91.9486 63.048 92.7913 63.048ZM106.81 63.272C106.735 63.976 106.698 64.6053 106.698 65.16C106.698 65.7147 106.714 66.152 106.746 66.472H106.378C106.314 65.7253 106.212 65.1547 106.074 64.76C105.935 64.3653 105.711 64.0827 105.402 63.912C105.092 63.7307 104.65 63.64 104.074 63.64H103.05V71.144C103.05 71.592 103.092 71.9173 103.178 72.12C103.263 72.3227 103.412 72.4613 103.626 72.536C103.839 72.6107 104.186 72.6587 104.666 72.68V73C104.111 72.968 103.327 72.952 102.314 72.952C101.247 72.952 100.458 72.968 99.9458 73V72.68C100.426 72.6587 100.772 72.6107 100.986 72.536C101.199 72.4613 101.348 72.3227 101.434 72.12C101.519 71.9173 101.562 71.592 101.562 71.144V63.64H100.538C99.9618 63.64 99.5191 63.7307 99.2098 63.912C98.9005 64.0827 98.6765 64.3653 98.5378 64.76C98.3991 65.1547 98.2978 65.7253 98.2338 66.472H97.8658C97.8978 66.1307 97.9138 65.6933 97.9138 65.16C97.9138 64.6053 97.8765 63.976 97.8018 63.272C98.6871 63.304 100.191 63.32 102.314 63.32C104.426 63.32 105.924 63.304 106.81 63.272ZM112.104 63.592C111.72 63.6133 111.437 63.656 111.256 63.72C111.085 63.784 110.968 63.9067 110.904 64.088C110.84 64.2693 110.808 64.5627 110.808 64.968V71.304C110.808 71.7093 110.84 72.0027 110.904 72.184C110.968 72.3653 111.085 72.488 111.256 72.552C111.437 72.616 111.72 72.6587 112.104 72.68V73C111.613 72.968 110.936 72.952 110.072 72.952C109.154 72.952 108.472 72.968 108.024 73V72.68C108.408 72.6587 108.685 72.616 108.856 72.552C109.037 72.488 109.16 72.3653 109.224 72.184C109.288 72.0027 109.32 71.7093 109.32 71.304V64.968C109.32 64.5627 109.288 64.2693 109.224 64.088C109.16 63.9067 109.037 63.784 108.856 63.72C108.685 63.656 108.408 63.6133 108.024 63.592V63.272C108.472 63.304 109.154 63.32 110.072 63.32C110.925 63.32 111.602 63.304 112.104 63.272V63.592ZM122.325 63.272C122.251 63.976 122.213 64.6053 122.213 65.16C122.213 65.7147 122.229 66.152 122.261 66.472H121.893C121.829 65.7253 121.728 65.1547 121.589 64.76C121.451 64.3653 121.227 64.0827 120.917 63.912C120.608 63.7307 120.165 63.64 119.589 63.64H118.565V71.144C118.565 71.592 118.608 71.9173 118.693 72.12C118.779 72.3227 118.928 72.4613 119.141 72.536C119.355 72.6107 119.701 72.6587 120.181 72.68V73C119.627 72.968 118.843 72.952 117.829 72.952C116.763 72.952 115.973 72.968 115.461 73V72.68C115.941 72.6587 116.288 72.6107 116.501 72.536C116.715 72.4613 116.864 72.3227 116.949 72.12C117.035 71.9173 117.077 71.592 117.077 71.144V63.64H116.053C115.477 63.64 115.035 63.7307 114.725 63.912C114.416 64.0827 114.192 64.3653 114.053 64.76C113.915 65.1547 113.813 65.7253 113.749 66.472H113.381C113.413 66.1307 113.429 65.6933 113.429 65.16C113.429 64.6053 113.392 63.976 113.317 63.272C114.203 63.304 115.707 63.32 117.829 63.32C119.941 63.32 121.44 63.304 122.325 63.272ZM132.995 63.592C132.622 63.6133 132.345 63.672 132.163 63.768C131.982 63.8533 131.859 64.0027 131.795 64.216C131.731 64.4187 131.699 64.7227 131.699 65.128V68.664C131.699 69.4 131.646 70.0293 131.539 70.552C131.443 71.064 131.278 71.512 131.043 71.896C130.787 72.3013 130.414 72.6267 129.923 72.872C129.443 73.1067 128.894 73.224 128.275 73.224C127.177 73.224 126.334 72.9893 125.747 72.52C125.278 72.104 124.963 71.6293 124.803 71.096C124.643 70.5627 124.563 69.768 124.563 68.712V64.968C124.563 64.5627 124.531 64.2693 124.467 64.088C124.403 63.9067 124.281 63.784 124.099 63.72C123.929 63.656 123.651 63.6133 123.267 63.592V63.272C123.715 63.304 124.398 63.32 125.315 63.32C126.169 63.32 126.846 63.304 127.347 63.272V63.592C126.963 63.6133 126.681 63.656 126.499 63.72C126.329 63.784 126.211 63.9067 126.147 64.088C126.083 64.2693 126.051 64.5627 126.051 64.968V68.984C126.051 69.7733 126.105 70.4293 126.211 70.952C126.318 71.464 126.542 71.88 126.883 72.2C127.235 72.5093 127.747 72.664 128.419 72.664C129.486 72.664 130.238 72.328 130.675 71.656C131.113 70.984 131.331 70.0453 131.331 68.84V65.128C131.331 64.552 131.225 64.1573 131.011 63.944C130.809 63.7307 130.43 63.6133 129.875 63.592V63.272C130.259 63.304 130.803 63.32 131.507 63.32C132.147 63.32 132.643 63.304 132.995 63.272V63.592ZM142.95 63.272C142.876 63.976 142.838 64.6053 142.838 65.16C142.838 65.7147 142.854 66.152 142.886 66.472H142.518C142.454 65.7253 142.353 65.1547 142.214 64.76C142.076 64.3653 141.852 64.0827 141.542 63.912C141.233 63.7307 140.79 63.64 140.214 63.64H139.19V71.144C139.19 71.592 139.233 71.9173 139.318 72.12C139.404 72.3227 139.553 72.4613 139.766 72.536C139.98 72.6107 140.326 72.6587 140.806 72.68V73C140.252 72.968 139.468 72.952 138.454 72.952C137.388 72.952 136.598 72.968 136.086 73V72.68C136.566 72.6587 136.913 72.6107 137.126 72.536C137.34 72.4613 137.489 72.3227 137.574 72.12C137.66 71.9173 137.702 71.592 137.702 71.144V63.64H136.678C136.102 63.64 135.66 63.7307 135.35 63.912C135.041 64.0827 134.817 64.3653 134.678 64.76C134.54 65.1547 134.438 65.7253 134.374 66.472H134.006C134.038 66.1307 134.054 65.6933 134.054 65.16C134.054 64.6053 134.017 63.976 133.942 63.272C134.828 63.304 136.332 63.32 138.454 63.32C140.566 63.32 142.065 63.304 142.95 63.272ZM148.244 63.592C147.86 63.6133 147.578 63.656 147.396 63.72C147.226 63.784 147.108 63.9067 147.044 64.088C146.98 64.2693 146.948 64.5627 146.948 64.968V71.304C146.948 71.7093 146.98 72.0027 147.044 72.184C147.108 72.3653 147.226 72.488 147.396 72.552C147.578 72.616 147.86 72.6587 148.244 72.68V73C147.754 72.968 147.076 72.952 146.212 72.952C145.295 72.952 144.612 72.968 144.164 73V72.68C144.548 72.6587 144.826 72.616 144.996 72.552C145.178 72.488 145.3 72.3653 145.364 72.184C145.428 72.0027 145.46 71.7093 145.46 71.304V64.968C145.46 64.5627 145.428 64.2693 145.364 64.088C145.3 63.9067 145.178 63.784 144.996 63.72C144.826 63.656 144.548 63.6133 144.164 63.592V63.272C144.612 63.304 145.295 63.32 146.212 63.32C147.066 63.32 147.743 63.304 148.244 63.272V63.592ZM154.549 63.048C155.531 63.048 156.389 63.2453 157.125 63.64C157.872 64.024 158.448 64.5947 158.853 65.352C159.259 66.0987 159.461 66.9947 159.461 68.04C159.461 69.064 159.248 69.9707 158.821 70.76C158.405 71.5387 157.824 72.1467 157.077 72.584C156.331 73.0107 155.483 73.224 154.533 73.224C153.552 73.224 152.688 73.032 151.941 72.648C151.205 72.2533 150.635 71.6827 150.229 70.936C149.824 70.1787 149.621 69.2773 149.621 68.232C149.621 67.208 149.829 66.3067 150.245 65.528C150.672 64.7387 151.259 64.1307 152.005 63.704C152.752 63.2667 153.6 63.048 154.549 63.048ZM154.485 63.336C153.835 63.336 153.259 63.544 152.757 63.96C152.267 64.3653 151.888 64.936 151.621 65.672C151.355 66.3973 151.221 67.2293 151.221 68.168C151.221 69.1173 151.371 69.9547 151.669 70.68C151.968 71.4053 152.373 71.9653 152.885 72.36C153.397 72.744 153.968 72.936 154.597 72.936C155.248 72.936 155.819 72.7333 156.309 72.328C156.811 71.912 157.195 71.3413 157.461 70.616C157.728 69.88 157.861 69.0427 157.861 68.104C157.861 67.1547 157.712 66.3173 157.413 65.592C157.115 64.8667 156.709 64.312 156.197 63.928C155.685 63.5333 155.115 63.336 154.485 63.336ZM170.564 63.592C170.191 63.6133 169.913 63.672 169.732 63.768C169.551 63.8533 169.428 64.0027 169.364 64.216C169.3 64.4187 169.268 64.7227 169.268 65.128V73.08H168.9L162.5 64.216V71.144C162.5 71.56 162.532 71.8693 162.596 72.072C162.671 72.2747 162.809 72.424 163.012 72.52C163.215 72.6053 163.529 72.6587 163.956 72.68V73C163.572 72.968 163.028 72.952 162.324 72.952C161.684 72.952 161.188 72.968 160.836 73V72.68C161.209 72.6587 161.487 72.6053 161.668 72.52C161.849 72.424 161.972 72.2747 162.036 72.072C162.1 71.8587 162.132 71.5493 162.132 71.144V64.968C162.132 64.5627 162.1 64.2693 162.036 64.088C161.972 63.9067 161.849 63.784 161.668 63.72C161.497 63.656 161.22 63.6133 160.836 63.592V63.272C161.188 63.304 161.684 63.32 162.324 63.32C162.9 63.32 163.391 63.304 163.796 63.272L168.9 70.376V65.128C168.9 64.712 168.863 64.4027 168.788 64.2C168.724 63.9973 168.591 63.8533 168.388 63.768C168.185 63.672 167.871 63.6133 167.444 63.592V63.272C167.828 63.304 168.372 63.32 169.076 63.32C169.716 63.32 170.212 63.304 170.564 63.272V63.592ZM175.073 63.048C175.542 63.048 175.91 63.1013 176.177 63.208C176.454 63.304 176.737 63.448 177.025 63.64C177.259 63.7893 177.441 63.864 177.569 63.864C177.665 63.864 177.739 63.8107 177.793 63.704C177.846 63.5867 177.889 63.4053 177.921 63.16H178.289C178.235 63.7147 178.209 64.696 178.209 66.104H177.841C177.777 65.336 177.526 64.6853 177.089 64.152C176.662 63.6187 176.038 63.352 175.217 63.352C174.651 63.352 174.182 63.5013 173.809 63.8C173.446 64.0987 173.265 64.4773 173.265 64.936C173.265 65.2667 173.345 65.5547 173.505 65.8C173.675 66.0453 173.889 66.2587 174.145 66.44C174.411 66.6107 174.785 66.824 175.265 67.08L175.793 67.368C176.454 67.72 176.982 68.0347 177.377 68.312C177.782 68.5893 178.107 68.9093 178.353 69.272C178.598 69.624 178.721 70.0347 178.721 70.504C178.721 71.368 178.406 72.04 177.777 72.52C177.158 72.9893 176.379 73.224 175.441 73.224C174.929 73.224 174.507 73.1707 174.177 73.064C173.857 72.9573 173.547 72.8133 173.249 72.632C173.014 72.4827 172.833 72.408 172.705 72.408C172.609 72.408 172.534 72.4667 172.481 72.584C172.427 72.6907 172.385 72.8667 172.353 73.112H171.985C172.027 72.5893 172.049 71.416 172.049 69.592H172.417C172.491 70.584 172.758 71.384 173.217 71.992C173.675 72.6 174.379 72.904 175.329 72.904C175.862 72.904 176.321 72.7547 176.705 72.456C177.099 72.1467 177.297 71.6933 177.297 71.096C177.297 70.744 177.195 70.4347 176.993 70.168C176.79 69.8907 176.518 69.6453 176.177 69.432C175.835 69.2187 175.361 68.952 174.753 68.632C173.878 68.184 173.211 67.736 172.753 67.288C172.294 66.84 172.065 66.2587 172.065 65.544C172.065 64.7547 172.353 64.1413 172.929 63.704C173.515 63.2667 174.23 63.048 175.073 63.048Z" fill="url(#paint0_linear)"/>
</g>
<defs>
<filter id="filter0_i" x="9" y="21" width="57" height="54" filterUnits="userSpaceOnUse" color-interpolation-filters="sRGB">
<feFlood flood-opacity="0" result="BackgroundImageFix"/>
<feBlend mode="normal" in="SourceGraphic" in2="BackgroundImageFix" result="shape"/>
<feColorMatrix in="SourceAlpha" type="matrix" values="0 0 0 0 0 0 0 0 0 0 0 0 0 0 0 0 0 0 127 0" result="hardAlpha"/>
<feOffset dy="2"/>
<feGaussianBlur stdDeviation="1"/>
<feComposite in2="hardAlpha" operator="arithmetic" k2="-1" k3="1"/>
<feColorMatrix type="matrix" values="0 0 0 0 0 0 0 0 0 0 0 0 0 0 0 0 0 0 0.5 0"/>
<feBlend mode="normal" in2="shape" result="effect1_innerShadow"/>
</filter>
<filter id="filter1_ii" x="66.77" y="18.84" width="127.239" height="19.38" filterUnits="userSpaceOnUse" color-interpolation-filters="sRGB">
<feFlood flood-opacity="0" result="BackgroundImageFix"/>
<feBlend mode="normal" in="SourceGraphic" in2="BackgroundImageFix" result="shape"/>
<feColorMatrix in="SourceAlpha" type="matrix" values="0 0 0 0 0 0 0 0 0 0 0 0 0 0 0 0 0 0 127 0" result="hardAlpha"/>
<feOffset dy="2"/>
<feGaussianBlur stdDeviation="1"/>
<feComposite in2="hardAlpha" operator="arithmetic" k2="-1" k3="1"/>
<feColorMatrix type="matrix" values="0 0 0 0 1 0 0 0 0 1 0 0 0 0 1 0 0 0 1 0"/>
<feBlend mode="color-burn" in2="shape" result="effect1_innerShadow"/>
<feColorMatrix in="SourceAlpha" type="matrix" values="0 0 0 0 0 0 0 0 0 0 0 0 0 0 0 0 0 0 127 0" result="hardAlpha"/>
<feOffset dx="1" dy="1"/>
<feGaussianBlur stdDeviation="1"/>
<feComposite in2="hardAlpha" operator="arithmetic" k2="-1" k3="1"/>
<feColorMatrix type="matrix" values="0 0 0 0 0 0 0 0 0 0 0 0 0 0 0 0 0 0 0.75 0"/>
<feBlend mode="normal" in2="effect1_innerShadow" result="effect2_innerShadow"/>
</filter>
<filter id="filter2_i" x="73.1329" y="48.048" width="105.588" height="29.176" filterUnits="userSpaceOnUse" color-interpolation-filters="sRGB">
<feFlood flood-opacity="0" result="BackgroundImageFix"/>
<feBlend mode="normal" in="SourceGraphic" in2="BackgroundImageFix" result="shape"/>
<feColorMatrix in="SourceAlpha" type="matrix" values="0 0 0 0 0 0 0 0 0 0 0 0 0 0 0 0 0 0 127 0" result="hardAlpha"/>
<feOffset dy="4"/>
<feGaussianBlur stdDeviation="2"/>
<feComposite in2="hardAlpha" operator="arithmetic" k2="-1" k3="1"/>
<feColorMatrix type="matrix" values="0 0 0 0 1 0 0 0 0 1 0 0 0 0 1 0 0 0 0.25 0"/>
<feBlend mode="normal" in2="shape" result="effect1_innerShadow"/>
</filter>
<linearGradient id="paint0_linear" x1="126" y1="44" x2="126" y2="74" gradientUnits="userSpaceOnUse">
<stop stop-color="#EBD2BC" stop-opacity="0.65"/>
<stop offset="1" stop-color="#E79419" stop-opacity="0.74"/>
</linearGradient>
<clipPath id="clip0">
<rect width="57" height="52" fill="white" transform="translate(9 21)"/>
</clipPath>
</defs>
</svg>
